<svg width="45" height="44" viewBox="0 0 45 44" fill="none" xmlns="http://www.w3.org/2000/svg">
<ellipse cx="22.5065" cy="22.1859" rx="21.5709" ry="21.5709" fill="#F5F5F5"/>
<g clip-path="url(#clip0_0_163)">
<path d="M30.4816 15.1773C30.0395 15.048 19.2264 13.9714 15.429 19.1019C13.7471 21.3747 13.7218 24.4903 15.3447 28.3615C14.933 29.216 14.5726 30.1161 14.2789 31.0658C14.1896 31.3544 14.3512 31.6604 14.6394 31.7494C14.6932 31.7661 14.7476 31.7739 14.8013 31.7739C15.0344 31.7739 15.2507 31.6234 15.323 31.3889C18.2173 22.0314 27.6233 17.5044 30.5078 16.3608C30.7885 16.2494 31.1636 15.377 30.4816 15.1773Z" fill="#84829A"/>
<path d="M17.0804 29.5333C18.646 30.1901 20.2114 30.5267 21.667 30.5267C22.9754 30.5267 24.1956 30.2577 25.2471 29.7122C27.3632 28.6144 28.6564 26.5146 28.9866 23.6391C29.323 20.7085 29.7418 18.8729 30.0912 17.75C26.9811 19.1847 20.3123 22.9034 17.0804 29.5333Z" fill="#84829A"/>
</g>
<defs>
<clipPath id="clip0_0_163">
<rect width="16.7774" height="16.7774" fill="white" transform="translate(14.118 14.9958)"/>
</clipPath>
</defs>
</svg>
