<svg width="44" height="44" viewBox="0 0 44 44" fill="none" xmlns="http://www.w3.org/2000/svg">
<ellipse cx="22.2197" cy="22.1859" rx="21.5709" ry="21.5709" fill="#F5F5F5"/>
<g clip-path="url(#clip0_0_177)">
<path d="M28.8119 13.7974C28.7188 13.7973 28.627 13.819 28.5438 13.8606L24.0032 16.1315L18.8688 13.8492C18.8604 13.8456 18.8508 13.845 18.8418 13.8414C18.8187 13.8328 18.7951 13.8256 18.7711 13.8198C18.7473 13.8134 18.723 13.8084 18.6986 13.8048C18.6499 13.8008 18.601 13.8008 18.5524 13.8048C18.528 13.8084 18.5038 13.8134 18.4799 13.8198C18.4559 13.8256 18.4323 13.8328 18.4092 13.8414C18.4002 13.845 18.3906 13.8456 18.3822 13.8492L12.9896 16.2459C12.7731 16.3421 12.6336 16.5567 12.6337 16.7935V29.9756C12.6338 30.1783 12.7363 30.3672 12.9063 30.4777C13.0763 30.5884 13.2907 30.6055 13.4761 30.5232L18.6255 28.2343L23.7749 30.5232C23.7838 30.5268 23.7934 30.5232 23.8024 30.5286C23.9475 30.5935 24.114 30.5898 24.256 30.5185C24.2656 30.5143 24.2763 30.5185 24.2859 30.5119L29.0794 28.1151C29.2825 28.0136 29.4108 27.806 29.4107 27.5788V14.3968C29.4109 14.0659 29.1428 13.7975 28.8119 13.7974ZM18.0263 27.1894L13.832 29.0534V17.183L18.0263 15.319V27.1894ZM23.419 29.0534L19.2247 27.1894V15.319L23.419 17.183V29.0534ZM28.2124 27.2085L24.6173 29.0061V17.1638L28.2124 15.3663V27.2085Z" fill="#84829A"/>
</g>
<defs>
<clipPath id="clip0_0_177">
<rect width="16.7774" height="16.7774" fill="white" transform="translate(12.6324 13.7959)"/>
</clipPath>
</defs>
</svg>
